<svg id="Layer_1" data-name="Layer 1" xmlns="http://www.w3.org/2000/svg" viewBox="0 0 488.9 66.41"><defs><style>.cls-1,.cls-2,.cls-3,.cls-4,.cls-6{fill:none;}.cls-1,.cls-2{stroke:#d1d3d4;}.cls-1,.cls-2,.cls-3,.cls-4,.cls-5,.cls-6{stroke-linejoin:round;}.cls-2,.cls-4{stroke-linecap:round;}.cls-3,.cls-4,.cls-5,.cls-6{stroke:#4c4c4d;}.cls-3,.cls-4,.cls-5{stroke-width:1.5px;}.cls-5{fill:#231f20;}</style></defs><title>cluj-outline</title><polyline class="cls-1" points="41.03 40.69 53.6 40.69 53.6 44.5 55.49 44.5 55.27 52.65"/><polyline class="cls-1" points="62.2 52.62 62.2 48.2 71.64 43.09 71.64 52.43"/><polyline class="cls-1" points="77.97 52.55 77.97 28.43 85.08 25.65 89.05 28.65 89.05 42.95 91.79 42.95 91.79 48.83 97.45 48.69 103.86 52.06 103.86 47.25"/><polyline class="cls-1" points="103.86 40.44 103.86 30.39 109.42 22.91 113.45 30.02 113.45 39.2"/><polyline class="cls-2" points="120.15 39.46 120.15 34.31 124.31 34.31 124.31 18.98 134.31 18.98 134.31 39.24 140.19 39.1 140.01 27.39 149.6 27.24 149.6 32.69 153.9 32.69 153.9 40.44"/><polyline class="cls-1" points="159.16 37.35 159.16 17.17 170.08 14.65 176.79 16.76 176.83 23.04"/><path class="cls-1" d="M198.69,57.7H201L200.83,50h8V60.3h10.92V44.67l10.45-5V54.44l6.33-.11-.19-20.08h3s5.15-6.3,11.59,0h3.48V46.52l7,0" transform="translate(-14.01 -9.09)"/><polyline class="cls-1" points="276.92 42.45 276.92 16.15 284.31 12.98 290.42 16.2 290.42 36.15 295.82 36.2"/><polyline class="cls-1" points="321.44 38.54 328.97 35.2 334.31 37.65 340.45 37.72 340.45 45.72 344.4 45.72 344.4 34.91 353.49 34.91 353.49 43.57 359.68 43.5 359.68 25.28 372.82 20.87 372.82 46.13 376.86 46.13"/><polyline class="cls-1" points="400.25 36.46 401.6 36.46 401.6 47.43 404.86 49.91 407.6 49.91 410.53 47.31 410.53 25.8 416.34 25.8"/><polyline class="cls-1" points="441.14 56.76 444.36 56.76 444.36 50.2 448.47 50.2 448.47 47.93 455.47 47.93 455.47 45.81 462.03 45.81 462.03 35.43 474.64 35.43 474.64 43.82"/><polyline class="cls-1" points="477.75 53.7 477.75 46.65 488.89 46.65"/><path class="cls-3" d="M14,74.75h7a.11.11,0,0,0,.1-.18c-1.37-2-12.35-19.64,4.62-23.83a97.62,97.62,0,0,1,17.92-2" transform="translate(-14.01 -9.09)"/><path class="cls-3" d="M59.21,51.48l-6.76,5.77c0,.16-2,1.13,2.59,4.56l-13,.06c-5.52,1.59-2.58,7.48-2.58,7.48H30.76s-6.52-9.85,3.7-10.81,7.41-1.78,7.41-1.78-12.34-3.84,1.74-8.06a60.26,60.26,0,0,1,15.59,2A.38.38,0,0,1,59.21,51.48Z" transform="translate(-14.01 -9.09)"/><path class="cls-3" d="M448.37,36a.11.11,0,0,0,.21.06l2.27-3.37a.22.22,0,0,1,.37,0l2.31,4.11v7.63L455,48.69l.18,22.89L466,71.13l-.15-2,9.3-5.41,4.48.22-.22-12.22,6.26-.55,3.14,2v9.63l6.34-.15v3.45l7.77-.11" transform="translate(-14.01 -9.09)"/><path class="cls-3" d="M433.72,36.29s.22-10.7.22-12.25,5.41-6.57,5.41-6.57l0-4.8a2.82,2.82,0,0,1,.83-2l.73-.74a.21.21,0,0,1,.29,0l.9.92a2.62,2.62,0,0,1,.74,1.72l.19,4.84s4.92,4.32,5.4,6.81,0,11.92,0,11.92" transform="translate(-14.01 -9.09)"/><path class="cls-3" d="M435.61,23" transform="translate(-14.01 -9.09)"/><path class="cls-3" d="M55,61.81l54.24-.24c0,.24,4.8-1.38,5.18,7.78h9.19s4-9.29,0-11.07-14-4-14-4,1.44-4.17,13.29-5.6,22.67,1.6,25,5.16c2.22,3.33-4,16.66-4.73,18.28a.11.11,0,0,0,.1.16h6l4.89-4.52,6.66-.07V71.5l6.67-1.26-.15-20.45a.18.18,0,0,1,.18-.18l2.74,0L174,45.49a.13.13,0,0,1,.19,0l3.6,4.2,3.21,0a.23.23,0,0,1,.24.23v4.69h3.44l.14-21.18,6-1.28,4.83,1.36L195.85,51l5.27,12.51v6.64l1.08,1,7.28,0v2.66h9.58V61l12.4-4.7,11.67,5.11v9.4l12,0V63.87l3.49-9.7.44-4.33a.38.38,0,0,1,.69-.17l.53.84a.45.45,0,0,0,.83-.22l1.2-18.79.07-.2,1.93-2.86L267,13.78a.07.07,0,0,1,.14,0l2.47,14.89,2.07,2.94.63,17.19A.39.39,0,0,0,273,49l.74-.85a.41.41,0,0,1,.72.19l.61,3,17.39.17,6.17,13.16v6.73l11.18-.1V40.08L335.5,40l-.19,26.82h7.52V61.58s1.82-2.24,11.26-4.08l2.83,0s.5-4.11,7.11-5.11c0,0,5,.11,7.23,3.83l7.05.11v10l12.56-.11V42h5.05v-2.5l12.67.11v2.16l5.67.12V58.17l3.11,2.94V72.22l9.83.06V47.67l1.67-3V37.78l2.22-4.35a.23.23,0,0,1,.38,0l2,2.82a.12.12,0,0,0,.21-.07" transform="translate(-14.01 -9.09)"/><path class="cls-3" d="M43.79,48.64l-.18.06" transform="translate(-14.01 -9.09)"/><path class="cls-3" d="M270.07,49.83" transform="translate(-14.01 -9.09)"/><line class="cls-4" x1="261.94" y1="42.3" x2="244.92" y2="42.3"/><line class="cls-4" x1="272.86" y1="44.7" x2="276.19" y2="51.43"/><line class="cls-4" x1="245.58" y1="54.65" x2="269.42" y2="54.65"/><line class="cls-4" x1="274.19" y1="54.65" x2="280.86" y2="54.65"/><line class="cls-4" x1="246.42" y1="57.2" x2="246.42" y2="63.04"/><line class="cls-4" x1="252.75" y1="57.2" x2="252.75" y2="63.04"/><line class="cls-4" x1="259.47" y1="57.2" x2="259.47" y2="63.04"/><line class="cls-4" x1="262.64" y1="57.2" x2="262.64" y2="63.04"/><line class="cls-4" x1="269.69" y1="56.93" x2="269.69" y2="62.76"/><line class="cls-4" x1="272.47" y1="56.93" x2="272.47" y2="62.76"/><line class="cls-4" x1="280.86" y1="56.93" x2="280.86" y2="62.76"/><polyline class="cls-4" points="420.6 30.16 420.56 35.13 422.34 38.54 422.34 57.48"/><polyline class="cls-4" points="434.38 29.94 434.36 35.2 433.14 38.26 433.14 57.48"/><polyline class="cls-3" points="433.14 38.26 427.68 35.09 422.34 38.54"/><path class="cls-3" d="M448.37,40.46s-6-6.44-13.8,0" transform="translate(-14.01 -9.09)"/><ellipse class="cls-5" cx="250.65" cy="25.48" rx="0.53" ry="1.18"/><ellipse class="cls-5" cx="255.46" cy="25.48" rx="0.53" ry="1.18"/><path class="cls-6" d="M433.72,36.29" transform="translate(-14.01 -9.09)"/></svg>